<?xml version="1.0" encoding="UTF-8" standalone="no" ?>
<svg xmlns="http://www.w3.org/2000/svg" xmlns:xlink="http://www.w3.org/1999/xlink" version="1.1" width="1280" height="720" viewBox="-41.18 74.12 1280 720" xml:space="preserve">
<defs>
</defs>
<rect x="0" y="0" width="100%" height="100%" fill="transparent"></rect>
<g transform="matrix(Infinity NaN NaN Infinity 0 0)" id="9a746fcd-0d0c-462b-8675-97d2b2523c71"  >
</g>
<g transform="matrix(1 0 0 1 640 360)" id="55d49180-73ad-48b1-b71c-bb765debecad"  >
<rect style="stroke: none; stroke-width: 1; stroke-dasharray: none; stroke-linecap: butt; stroke-dashoffset: 0; stroke-linejoin: miter; stroke-miterlimit: 4; fill: rgb(255,255,255); fill-rule: nonzero; opacity: 1; visibility: hidden;" vector-effect="non-scaling-stroke"  x="-640" y="-360" rx="0" ry="0" width="1280" height="720" />
</g>
<g transform="matrix(0.99 0 0 0.99 596 488.71)"  >
<path style="stroke: none; stroke-width: 1; stroke-dasharray: none; stroke-linecap: butt; stroke-dashoffset: 0; stroke-linejoin: miter; stroke-miterlimit: 4; fill: rgb(255,255,255); fill-rule: nonzero; opacity: 1;" vector-effect="non-scaling-stroke"  transform=" translate(3.64, -119.91)" d="M 0 0 C 3.2692 1.4849 6.1295 3.5917 9.0488 5.658 C 9.75078 6.14792 10.4528 6.63785 11.176 7.1426 C 13.409 8.7038 15.6356 10.2739 17.8613 11.8455 C 19.2727 12.83784 20.6841 13.83 22.0957 14.822099999999999 C 25.627200000000002 17.307699999999997 29.1525 19.802 32.6767 22.2987 C 37.1356 25.4553 41.6018 28.601399999999998 46.0667 31.7496 C 50.3425 34.7667 54.6061 37.800200000000004 58.8617 40.8455 C 56.8335 45.526 53.7498 47.3979 49.6117 50.158 C 48.6275 50.85893 48.6275 50.85893 47.6234 51.574 C 44.583999999999996 53.6194 42.601699999999994 54.8065 38.8968 55.0017 C 34.568799999999996 53.3529 31.2177 50.8242 27.5488 48.0329 C 25.9554 46.8567 24.3616 45.6809 22.7676 44.5056 C 20.3256 42.6863 17.886000000000003 40.8639 15.447300000000002 39.0403 C 13.157500000000002 37.3367 10.854500000000002 35.6525 8.548900000000003 33.9705 C 7.850470000000003 33.44094 7.152000000000003 32.9114 6.432400000000003 32.3658 C 5.773450000000003 31.88732 5.114500000000003 31.408830000000002 4.435600000000003 30.9158 C 3.8641400000000026 30.49057 3.2927000000000026 30.06534 2.7039000000000026 29.627200000000002 C 0.09860000000000246 28.521800000000002 -1.4301999999999975 29.12265 -4.138599999999998 29.845460000000003 C -6.306499999999998 30.94356 -6.306499999999998 30.94356 -8.396199999999997 32.38306 C -9.206469999999996 32.91568 -10.016699999999997 33.44826 -10.851599999999998 33.99706 C -11.718479999999998 34.578669999999995 -12.585399999999998 35.16026 -13.478499999999997 35.75956 C -14.389209999999997 36.36168 -15.299899999999997 36.96376 -16.238199999999996 37.58416 C -19.189499999999995 39.53846 -22.132899999999996 41.50416 -25.076099999999997 43.470459999999996 C -27.094199999999997 44.810559999999995 -29.112699999999997 46.15015999999999 -31.131499999999996 47.489259999999994 C -42.6125 55.113859999999995 -54.0655 62.778259999999996 -65.4085 70.60726 C -80.3155 80.86126 -95.51650000000001 90.69226 -110.63650000000001 100.62725999999999 C -113.54450000000001 102.53855999999999 -116.4514 104.45155999999999 -119.35820000000001 106.36475999999999 C -120.23746000000001 106.94192 -121.11670000000001 107.51906 -122.02260000000001 108.11375999999998 C -125.7814 110.58935999999999 -129.49810000000002 113.08545999999998 -133.12560000000002 115.75025999999998 C -136.13930000000002 117.84525999999998 -136.13930000000002 117.84525999999998 -138.13930000000002 117.84525999999998 C -133.8855 122.47085999999999 -129.06060000000002 125.86675999999999 -123.88930000000002 129.40725999999998 C -122.08440000000002 130.65695999999997 -120.27970000000002 131.90695999999997 -118.47520000000002 133.15725999999998 C -117.57511000000001 133.77858999999998 -116.67500000000001 134.39996 -115.74770000000001 135.04005999999998 C -111.9882 137.64115999999999 -108.24860000000001 140.27005999999997 -104.5147 142.90725999999998 C -103.48660000000001 143.63235999999998 -103.48660000000001 143.63235999999998 -102.43780000000001 144.37205999999998 C -97.28920000000001 148.01165999999998 -92.1808 151.70445999999998 -87.0768 155.40705999999997 C -80.8143 159.94895999999997 -74.49380000000001 164.39045999999996 -68.1058 168.75305999999998 C -61.1094 173.53435999999996 -54.1948 178.42945999999998 -47.2808 183.32805999999997 C -43.038199999999996 186.33225999999996 -38.7895 189.32785999999996 -34.5408 192.32415999999998 C -30.845799999999997 194.93095999999997 -27.154199999999996 197.54225999999997 -23.467799999999997 200.16055999999998 C -22.701449999999998 200.70389999999998 -21.9351 201.24725999999998 -21.1455 201.80705999999998 C -19.682199999999998 202.84465999999998 -18.2199 203.88366 -16.758799999999997 204.92425999999998 C -16.095579999999998 205.39412 -15.432399999999998 205.86398999999997 -14.748999999999997 206.34805999999998 C -13.882269999999997 206.96402999999998 -13.882269999999997 206.96402999999998 -12.997999999999998 207.59246 C -10.762099999999997 209.09846 -8.460099999999997 210.47296 -6.139599999999998 211.84416 C 16.6624 196.88816 39.407399999999996 181.85616 61.9864 166.56616 C 78.2524 155.55516 94.6284 144.71816 111.0514 133.94416 C 111.94855 133.35511000000002 112.84570000000001 132.76606 113.77 132.15916 C 115.44449999999999 131.06006000000002 117.1198 129.96216 118.79599999999999 128.86566000000002 C 119.53954999999999 128.37772 120.28309999999999 127.88978000000002 121.0492 127.38706000000002 C 121.69228 126.96601000000003 122.33539999999999 126.54496000000002 122.9979 126.11116000000001 C 124.3583 125.18585000000002 125.679 124.20156000000001 126.9732 123.18566000000001 C 128.86 121.84456000000002 128.86 121.84456000000002 130.86 121.84456000000002 C 126.23760000000001 116.70636000000002 120.674 113.09166000000002 114.98500000000001 109.21956000000002 C 105.82010000000001 102.91886000000001 96.77600000000001 96.49256000000001 87.86000000000001 89.84456000000002 C 91.60320000000002 85.81506000000002 95.50720000000001 82.91966000000002 100.17200000000001 80.03206000000002 C 100.81718000000001 79.62536000000001 101.46240000000002 79.21866000000001 102.12710000000001 78.79966000000002 C 103.70090000000002 77.80876000000002 105.27970000000002 76.82586000000002 106.85950000000001 75.84456000000002 C 113.14240000000001 79.04116000000002 118.7335 82.85776000000001 124.36850000000001 87.06256000000002 C 130.2383 91.42796000000001 136.22150000000002 95.61716000000001 142.23450000000003 99.78156000000001 C 151.8129 106.41796000000001 161.35250000000002 113.10656000000002 170.85950000000003 119.84356000000001 C 169.49860000000004 123.05976000000001 168.19760000000002 124.60966 165.27580000000003 126.49956000000002 C 164.16030000000003 127.23133000000001 164.16030000000003 127.23133000000001 163.02220000000003 127.97786000000002 C 162.20668000000003 128.49943000000002 161.39120000000003 129.02096000000003 160.5509 129.55836000000002 C 159.26620000000003 130.39666000000003 159.26620000000003 130.39666000000003 157.9556 131.25186000000002 C 156.09470000000002 132.46506000000002 154.231 133.67406000000003 152.365 134.87946000000002 C 147.3271 138.13456000000002 142.31 141.42096000000004 137.28900000000002 144.70286000000002 C 135.73520000000002 145.71686000000003 135.73520000000002 145.71686000000003 134.1501 146.75126 C 123.71110000000002 153.57226 113.37210000000002 160.53826 103.0471 167.53126 C 99.4682 169.95266 95.8887 172.37306 92.3091 174.79296 C 91.43413 175.38447 90.5592 175.97596 89.6577 176.58545999999998 C 79.802 183.24275999999998 69.89970000000001 189.82945999999998 59.996700000000004 196.41546 C 44.483700000000006 206.73445999999998 29.034700000000004 217.14846 13.604700000000001 227.59145999999998 C 12.72259 228.18777999999998 11.8405 228.78405999999998 10.931600000000001 229.39845999999997 C 9.282800000000002 230.51305999999997 7.634700000000001 231.62875999999997 5.987400000000001 232.74575999999996 C -4.4975999999999985 239.83145999999996 -4.4975999999999985 239.83145999999996 -7.448599999999999 239.88635999999997 C -11.522099999999998 238.30785999999998 -14.730699999999999 235.77405999999996 -18.202599999999997 233.15585999999996 C -19.816099999999995 231.96435999999997 -21.430799999999998 230.77425999999997 -23.0464 229.58555999999996 C -23.883 228.96777999999995 -24.7196 228.34995999999995 -25.581599999999998 227.71345999999997 C -29.743599999999997 224.67135999999996 -33.9718 221.72605999999996 -38.2026 218.78085999999996 C -39.8876 217.60525999999996 -41.5725 216.42945999999995 -43.2573 215.25355999999996 C -44.4846 214.39721999999998 -44.4846 214.39721999999998 -45.7368 213.52355999999997 C -49.441900000000004 210.93335999999996 -53.135600000000004 208.32715999999996 -56.8278 205.71835999999996 C -57.865700000000004 204.98516999999995 -57.865700000000004 204.98516999999995 -58.9245 204.23715999999996 C -61.6846 202.28675999999996 -64.4442 200.33555999999996 -67.2038 198.38435999999996 C -75.5024 192.51775999999995 -83.8118 186.66735999999995 -92.1408 180.84335999999996 C -104.0818 172.49145999999996 -115.9958 164.10235999999998 -127.8468 155.62235999999996 C -136.9879 149.08635999999996 -146.1718 142.61035999999996 -155.3868 136.17935999999995 C -156.27158 135.56157999999994 -157.1564 134.94375999999994 -158.06799999999998 134.30725999999996 C -159.7745 133.11645999999996 -161.4818 131.92695999999995 -163.19009999999997 130.73885999999996 C -168.25229999999996 127.20695999999997 -173.22909999999996 123.58215999999996 -178.14109999999997 119.84285999999996 C -176.63249999999996 115.33975999999996 -173.02549999999997 113.42765999999996 -169.23089999999996 110.97565999999996 C -168.52435999999997 110.50840999999996 -167.81779999999998 110.04114999999996 -167.08989999999997 109.55975999999997 C -164.75829999999996 108.02055999999997 -162.41849999999997 106.49435999999997 -160.07859999999997 104.96785999999997 C -158.44739999999996 103.89395999999998 -156.81689999999998 102.81905999999998 -155.18699999999995 101.74325999999998 C -151.82709999999994 99.52675999999998 -148.46439999999996 97.31455999999997 -145.09999999999997 95.10555999999998 C -138.36099999999996 90.67705999999998 -131.65599999999998 86.19845999999998 -124.95099999999996 81.71855999999998 C -121.55919999999996 79.45295999999998 -118.16479999999997 77.19115999999998 -114.77099999999996 74.92895999999999 C -113.47559999999996 74.06536999999999 -112.18019999999996 73.20176 -110.88479999999996 72.33815999999999 C -20.036799999999957 11.77315999999999 -20.036799999999957 11.77315999999999 -17.12479999999995 9.84615999999999 C -15.019499999999951 8.43255999999999 -12.941599999999951 7.0016599999999904 -10.87379999999995 5.53565999999999 C -9.81109999999995 4.79412999999999 -8.74849999999995 4.05255999999999 -7.653599999999949 3.28855999999999 C -6.692849999999949 2.60551999999999 -5.732099999999949 1.92245999999999 -4.742199999999949 1.2187599999999903 C -2.141899999999949 -0.15674000000000965 -2.141899999999949 -0.15674000000000965 -0.0031999999999490214 -0.0021400000000098007 z" stroke-linecap="round" />
</g>
<g transform="matrix(0.99 0 0 0.99 577.23 344.82)"  >
<path style="stroke: none; stroke-width: 1; stroke-dasharray: none; stroke-linecap: butt; stroke-dashoffset: 0; stroke-linejoin: miter; stroke-miterlimit: 4; fill: rgb(0,182,214); fill-rule: nonzero; opacity: 1;" vector-effect="non-scaling-stroke"  transform=" translate(20.78, -82.87)" d="M 0 0 C 3.6108 1.2174 6.31 3.2995 9.2852 5.6055 C 10.6208 6.6128 11.9582 7.617900000000001 13.2969 8.6211 C 14.01023 9.15671 14.723600000000001 9.6923 15.4585 10.2441 C 19.448900000000002 13.194099999999999 23.5246 16.0212 27.5975 18.8554 C 29.3098 20.0493 31.022 21.243299999999998 32.7342 22.4374 C 33.57128 23.02086 34.4084 23.604300000000002 35.2708 24.2055 C 38.9929 26.8052 42.702400000000004 29.422600000000003 46.409800000000004 32.0429 C 47.444 32.773680000000006 47.444 32.773680000000006 48.4992 33.519200000000005 C 49.8814 34.49606000000001 51.263600000000004 35.473000000000006 52.645700000000005 36.450100000000006 C 56.17 38.941100000000006 59.69630000000001 41.429300000000005 63.2227 43.9179 C 64.63940000000001 44.91789 66.056 45.9179 67.4727 46.9179 L 69.5977 48.4179 C 77.38940000000001 53.9179 85.1807 59.4179 92.9727 64.9179 C 93.67411 65.41298 94.3755 65.90806 95.0982 66.41810000000001 C 96.5134 67.41711000000001 97.92840000000001 68.4163 99.3433 69.41570000000002 C 102.9069 71.93240000000002 106.4727 74.44580000000002 110.0433 76.95310000000002 C 113.5751 79.43440000000002 117.0992 81.92610000000002 120.6183 84.42580000000002 C 122.0519 85.44200000000002 123.48790000000001 86.45490000000002 124.9259 87.46490000000003 C 127.0528 88.96060000000003 129.1702 90.46890000000003 131.2858 91.98050000000003 C 131.93564999999998 92.43369000000004 132.5855 92.88687000000003 133.255 93.35380000000004 C 134.8004 94.46810000000004 136.2706 95.68530000000004 137.7233 96.91800000000003 L 137.7233 99.91800000000003 C 135.4564 102.17280000000004 132.7317 103.86480000000003 130.0983 105.66800000000003 C 129.38545 106.18749000000004 128.6726 106.70700000000004 127.93809999999999 107.24220000000004 C 124.73979999999999 109.45460000000004 122.6218 110.87060000000004 118.68809999999999 111.07810000000003 C 114.6202 109.48630000000003 111.40039999999999 107.20500000000004 107.91109999999999 104.60540000000003 C 106.39309999999999 103.50350000000003 104.8749 102.40200000000003 103.3564 101.30070000000003 C 102.58586 100.73641000000003 101.8153 100.17210000000003 101.0214 99.59070000000004 C 97.4746 97.00860000000004 93.8786 94.49800000000005 90.2864 91.98030000000004 C 84.3767 87.81920000000004 78.5114 83.60050000000004 72.6614 79.35530000000004 C 66.3989 74.81340000000004 60.0784 70.37190000000004 53.6904 66.00930000000004 C 46.7001 61.23210000000004 39.791399999999996 56.34170000000004 32.8824 51.44730000000004 C 30.698599999999995 49.90020000000004 28.5141 48.35410000000004 26.329199999999997 46.80860000000004 C 25.606919999999995 46.29765000000004 24.884599999999995 45.78670000000004 24.140499999999996 45.26030000000004 C 22.709799999999994 44.25020000000004 21.277699999999996 43.24200000000005 19.844099999999997 42.23590000000004 C 16.5171 39.90070000000004 13.209199999999997 37.548000000000044 9.942499999999997 35.12900000000004 C 9.354369999999998 34.701270000000044 8.766199999999998 34.27355000000004 8.160299999999998 33.83290000000004 C 6.585899999999998 32.68720000000004 5.021599999999998 31.52780000000004 3.458199999999998 30.36730000000004 C 0.1522999999999981 28.61520000000004 -0.7642000000000024 28.90580000000004 -4.276200000000002 29.91808000000004 C -6.422600000000002 31.00198000000004 -6.422600000000002 31.00198000000004 -8.486200000000002 32.423980000000036 C -9.286890000000001 32.950210000000034 -10.087600000000002 33.47648000000004 -10.912500000000001 34.01868000000004 C -11.769870000000001 34.59395000000004 -12.627200000000002 35.16918000000004 -13.510600000000002 35.76188000000004 C -14.413250000000001 36.35862000000004 -15.315900000000003 36.95538000000004 -16.245900000000002 37.57018000000004 C -19.178000000000004 39.51168000000004 -22.102200000000003 41.46458000000004 -25.026200000000003 43.418080000000046 C -27.0343 44.75158000000005 -29.042800000000003 46.08448000000005 -31.051600000000004 47.41688000000005 C -43.4846 55.674080000000046 -55.8766 63.99188000000005 -68.18260000000001 72.43788000000005 C -73.84370000000001 76.32018000000005 -79.55860000000001 80.11958000000006 -85.2766 83.91788000000005 C -87.0581 85.10508000000006 -88.83930000000001 86.29258000000006 -90.6204 87.48038000000005 C -103.69040000000001 96.19388000000005 -116.76140000000001 104.90738000000005 -129.8314 113.62138000000004 C -130.406 114.00617000000004 -130.9806 114.39095000000005 -131.5726 114.78738000000004 C -132.71529999999998 115.54572000000005 -133.8646 116.29438000000005 -135.0199 117.03348000000004 C -138.17430000000002 118.96878000000004 -138.17430000000002 118.96878000000004 -140.2767 121.91828000000004 C -139.58705 122.15031000000003 -138.8974 122.38234000000004 -138.1869 122.62140000000004 C -134.6587 124.19370000000004 -131.768 126.34400000000004 -128.7142 128.66830000000004 C -121.5734 134.00960000000003 -114.29920000000001 139.14130000000006 -106.9792 144.23330000000004 C -106.16588 144.79952000000003 -105.35260000000001 145.36570000000003 -104.5146 145.94910000000004 C -103.4324 146.70030000000006 -103.4324 146.70030000000006 -102.3283 147.46670000000003 C -100.2818 148.91400000000004 -98.2742 150.40440000000004 -96.27629999999999 151.91790000000003 C -97.8222 156.55570000000003 -101.53529999999999 158.08860000000004 -105.52629999999999 160.66790000000003 C -106.29070999999999 161.18739000000002 -107.0551 161.70690000000002 -107.8427 162.24210000000002 C -108.58906999999999 162.72808000000003 -109.33539999999999 163.21405000000001 -110.1044 163.71480000000003 C -110.78406 164.16178000000002 -111.4637 164.60876000000002 -112.164 165.06930000000003 C -114.947 166.18740000000003 -116.4457 165.80958000000004 -119.2763 164.91793 C -121.62410000000001 163.37683 -123.8114 161.81753 -126.0263 160.10543 C -127.36630000000001 159.09613000000002 -128.7075 158.08843000000002 -130.0497 157.08203 C -130.74418 156.55899 -131.4387 156.03593 -132.1542 155.49703 C -135.6079 152.92703 -139.1276 150.45313 -142.65120000000002 147.98042999999998 C -143.35487 147.48534999999998 -144.0585 146.99026999999998 -144.7835 146.48022999999998 C -146.2195 145.47023 -147.6559 144.46062999999998 -149.0926 143.45162999999997 C -154.1884 139.87252999999995 -159.27960000000002 136.28712999999996 -164.3586 132.68362999999997 C -166.8186 130.93922999999995 -169.2926 129.22032999999996 -171.7883 127.52742999999997 C -173.2984 126.48332999999997 -173.2984 126.48332999999997 -174.8391 125.41802999999997 C -175.70664 124.83021999999997 -176.5742 124.24242999999997 -177.468 123.63682999999997 C -178.36325 122.78604999999997 -178.36325 122.78604999999997 -179.2766 121.91802999999997 C -179.2766 117.91802999999997 -179.2766 117.91802999999997 -177.8955 116.53122999999998 C -177.24354 116.11239999999998 -176.5916 115.69356999999998 -175.91989999999998 115.26202999999998 C -175.17604999999998 114.77416999999998 -174.4322 114.28629999999998 -173.6658 113.78362999999999 C -172.83998 113.26207999999998 -172.0142 112.74052999999999 -171.1633 112.20312999999999 C -169.8747 111.36502999999999 -169.8747 111.36502999999999 -168.5601 110.51002999999999 C -166.68880000000001 109.29492999999998 -164.8133 108.08612999999998 -162.9343 106.88282999999998 C -158.8991 104.29842999999998 -154.8837 101.68402999999998 -150.8673 99.07052999999999 C -148.7779 97.71113 -146.6875 96.35313 -144.5962 94.99663 C -135.12390000000002 88.84543 -125.7562 82.54763 -116.4102 76.20563 C -100.2122 65.21463 -83.9202 54.37663 -67.5572 43.63263 C -47.2422 30.288629999999998 -27.093199999999996 16.70063 -6.973199999999991 3.064630000000001 C -2.3130999999999915 -0.0829699999999991 -2.3130999999999915 -0.0829699999999991 0.0013000000000085166 0.0003300000000012737 z" stroke-linecap="round" />
</g>
<g transform="matrix(0.99 0 0 0.99 650.5 436.94)"  >
<path style="stroke: none; stroke-width: 1; stroke-dasharray: none; stroke-linecap: butt; stroke-dashoffset: 0; stroke-linejoin: miter; stroke-miterlimit: 4; fill: rgb(255,255,255); fill-rule: nonzero; opacity: 1;" vector-effect="non-scaling-stroke"  transform=" translate(103, -66.6)" d="M 0 0 C 2.0364 1.1016 2.0364 1.1016 3.9883 2.625 C 4.69406 3.16641 5.3998 3.7077999999999998 6.127000000000001 4.2656 C 6.848230000000001 4.83794 7.569500000000001 5.4103 8.3125 6 C 9.4233 6.85852 9.4233 6.85852 10.5566 7.7344 C 12.3796 9.1458 14.193299999999999 10.5677 16 12 C 15.70288 13.8542 15.70288 13.8542 15 16 C 12.5442 17.7643 10.165 19.2991 7.5625 20.8125 C 6.0847 21.70239 4.6081 22.5943 3.1327999999999996 23.4883 C 2.4163999999999994 23.919649999999997 1.6999999999999995 24.35101 0.9618999999999995 24.795399999999997 C -2.2173000000000003 26.7474 -5.234 28.906 -8.2642 31.078599999999998 C -11.3343 33.2347 -14.4511 35.3148 -17.578200000000002 37.3867 C -23.512300000000003 41.3307 -29.424200000000003 45.3058 -35.324200000000005 49.3007 C -53.93520000000001 61.8957 -72.59120000000001 74.4127 -91.3752 86.74969999999999 C -105.5172 96.03909999999999 -119.6102 105.39469999999999 -133.6252 114.87469999999999 C -134.39338 115.39398999999999 -135.1616 115.91329999999999 -135.953 116.44829999999999 C -137.4289 117.44657999999998 -138.9043 118.44559999999998 -140.3791 119.4455 C -141.7527 120.3763 -143.1278 121.3051 -144.5043 122.2316 C -147.393 124.1841 -150.2135 126.1624 -152.9875 128.278 C -159.0858 132.92329999999998 -159.0858 132.92329999999998 -163.60150000000002 133.3005 C -168.11450000000002 131.5731 -171.5636 129.1217 -175.3745 126.1872 C -176.97400000000002 124.9935 -178.57430000000002 123.80080000000001 -180.17530000000002 122.6091 C -180.98048000000003 122.00389 -181.78570000000002 121.39869999999999 -182.61520000000002 120.7751 C -186.21620000000001 118.0937 -189.88520000000003 115.5132 -193.56220000000002 112.93719999999999 C -194.95170000000002 111.95952999999999 -196.341 110.98169999999999 -197.73020000000002 110.00359999999999 C -198.42291000000003 109.5165 -199.11560000000003 109.02938999999999 -199.82930000000002 108.52749999999999 C -202.13410000000002 106.90509999999999 -204.43640000000002 105.279 -206.73800000000003 103.65199999999999 C -207.51394000000002 103.10358 -208.28990000000002 102.55519999999999 -209.08930000000004 101.99009999999998 C -210.57850000000005 100.93739999999998 -212.06760000000003 99.88449999999999 -213.55660000000003 98.83139999999999 C -214.22619000000003 98.35838999999999 -214.89580000000004 97.88538999999999 -215.58570000000003 97.39809999999999 C -216.17400000000004 96.98221999999998 -216.76230000000004 96.56632999999998 -217.36840000000004 96.13779999999998 C -218.89780000000005 95.07079999999999 -220.44810000000004 94.03399999999998 -221.99970000000005 92.99959999999999 C -221.66315000000006 90.10399999999998 -221.17628000000005 89.15119999999999 -218.92550000000006 87.21839999999999 C -218.06312000000005 86.65120999999999 -217.20070000000007 86.08399999999999 -216.31220000000005 85.49959999999999 C -215.40857000000005 84.90147999999999 -214.50490000000005 84.30339999999998 -213.57390000000004 83.68709999999999 C -212.72441000000003 83.13021999999998 -211.87490000000003 82.57329999999999 -210.99970000000005 81.99959999999999 C -210.08124000000004 81.31897999999998 -210.08124000000004 81.31897999999998 -209.14420000000004 80.62459999999999 C -205.50280000000004 77.92869999999999 -205.50280000000004 77.92869999999999 -203.04140000000004 78.27569999999999 C -199.60190000000003 79.49509999999998 -196.76870000000002 81.71929999999999 -193.81220000000005 83.81209999999999 C -193.11965000000004 84.29549999999999 -192.42710000000005 84.7789 -191.71360000000004 85.27689999999998 C -189.47120000000004 86.84489999999998 -187.23530000000005 88.42179999999999 -184.99970000000005 89.99959999999999 C -183.43610000000004 91.09749999999998 -181.87230000000005 92.19519999999999 -180.30830000000006 93.2926 C -177.38510000000005 95.3476 -174.46350000000007 97.40459999999999 -171.54660000000007 99.46839999999999 C -170.60591000000008 100.12581999999999 -170.60591000000008 100.12581999999999 -169.64620000000008 100.7965 C -167.99970000000008 101.9996 -167.99970000000008 101.9996 -165.82780000000008 103.96839999999999 C -164.00140000000007 105.26829999999998 -164.00140000000007 105.26829999999998 -161.7184000000001 104.48401999999999 C -158.1982000000001 102.56212 -154.8463000000001 100.45791999999999 -151.4994000000001 98.24962 C -150.7493300000001 97.75921 -149.9993000000001 97.2688 -149.2265000000001 96.76352 C -141.9564000000001 91.99872 -134.7245000000001 87.17592 -127.4995000000001 82.34352 C -122.5044000000001 79.00282 -117.5030000000001 75.67172 -112.4995000000001 72.34352 C -92.9165000000001 59.31352 -73.3805000000001 46.21751999999999 -53.8915000000001 33.04652 C -52.1918000000001 31.898120000000002 -50.4921000000001 30.74972 -48.7924000000001 29.60142 C -47.5624000000001 28.770220000000002 -47.5624000000001 28.770220000000002 -46.3075000000001 27.92222 C -39.941000000000095 23.62452 -33.5535000000001 19.35922 -27.146500000000096 15.122219999999999 C -21.411300000000097 11.31632 -15.770500000000096 7.382419999999999 -10.223500000000097 3.307219999999999 C -6.6087000000000975 0.7479199999999993 -4.421700000000097 -0.5010800000000009 -0.0005000000000965343 0.0005199999999989657 z" stroke-linecap="round" />
</g>
</svg>